PathFileType	4	(X/Y/Z)	Patient4_TMGait_0pt8_01_left_25.trc.trc
DataRate	CameraRate	NumFrames	NumMarkers	Units	OrigDataRate	OrigDataStartFrame	OrigNumFrames
89.743589743590	89.743589743590	6	33	mm	89.743589743590	36	       141
Frame#	Time	Sacral			L.Shoulder			Chest			R.Shoulder			Neck			R.ASIS			L.ASIS			R.Thigh.Superior			R.Thigh.Lateral			R.Thigh.Inferior			R.Patella			L.Thigh.Superior			L.Thigh.Lateral			L.Thigh.Inferior			L.Patella			L.Shank.Superior			L.Shank.Lateral			L.Shank.Inferior			R.Shank.Superior			R.Shank.Lateral			R.Shank.Inferior			R.Heel			R.Midfoot.Superior			R.Midfoot.Lateral			R.Toe			L.Heel			L.Midfoot.Lateral			L.Midfoot.Superior			L.Toe			L.Elbow			L.Wrist			R.Elbow			R.Wrist			
		X1	Y1	Z1	X2	Y2	Z2	X3	Y3	Z3	X4	Y4	Z4	X5	Y5	Z5	X6	Y6	Z6	X7	Y7	Z7	X8	Y8	Z8	X9	Y9	Z9	X10	Y10	Z10	X11	Y11	Z11	X12	Y12	Z12	X13	Y13	Z13	X14	Y14	Z14	X15	Y15	Z15	X16	Y16	Z16	X17	Y17	Z17	X18	Y18	Z18	X19	Y19	Z19	X20	Y20	Z20	X21	Y21	Z21	X22	Y22	Z22	X23	Y23	Z23	X24	Y24	Z24	X25	Y25	Z25	X26	Y26	Z26	X27	Y27	Z27	X28	Y28	Z28	X29	Y29	Z29	X30	Y30	Z30	X31	Y31	Z31	X32	Y32	Z32	X33	Y33	Z33	

36	27.750000000000	910.522277652976	1001.071167626062	468.685661514308	1058.192271756878	1427.577972275126	286.295104625062	1178.011565346505	1362.071287939259	437.235602557251	1108.327746611931	1432.903076121955	618.739005388640	1053.012608805327	1487.800595097439	443.338994836388	1137.468011574558	931.693549076253	575.297929885348	1117.397296498542	955.266070978187	302.886231614319	1148.259027236204	719.111730694217	556.404474194207	1052.412402824590	620.681476316668	621.490592611174	1124.567913560190	552.095101406202	549.593385686504	1102.521381143028	447.006877657761	569.273173296476	1190.970821362118	764.652396275884	334.496006260254	1122.775760696224	635.358746799436	274.082130298731	1222.053673958677	572.538374526781	334.622569483544	1234.615423322356	502.721947769495	342.149112030796	1216.346452930830	427.429469351264	337.282782632002	1139.604013278373	301.250781537913	294.511956917931	1210.318108713354	199.381427012814	363.523118166772	1024.046349935298	383.252009727576	573.712407488541	903.192224894943	342.612368445652	633.849205972203	889.305178990399	234.491562640380	580.617474925121	686.002674453466	158.957417829818	551.012175393221	860.248959596326	120.035124875262	589.894460081871	750.980297691416	102.533146027159	620.356246179524	935.450073607960	31.819179762025	606.875959843419	1102.200879340867	38.525802096760	417.108660282642	1170.393893884311	36.620812622424	331.012909096917	1253.900498341541	98.552346665005	352.197513163285	1380.575058731209	49.779230310745	316.051294693111	921.519659647179	1101.701284015348	200.521020793060	864.961373137063	850.138379368473	210.984109403803	1213.065797305242	1104.588981519393	734.245922713747	1420.825602627922	1227.029577895881	672.765059542708	
37	27.761142857143	910.199089394482	1002.083000780255	465.364239172017	1059.349855016148	1429.072482056919	284.095835713032	1178.259263356695	1363.344476794780	435.625840562613	1107.514798464721	1434.038147361584	616.755215964806	1053.169634820567	1489.076323118416	441.165967438527	1137.112016853291	932.940921326028	572.466244554883	1117.767735993484	956.741547452766	300.139600429442	1153.228527806095	721.484223434078	554.180413521673	1060.403306254581	621.013203920432	619.967818685193	1134.749614691548	553.574459601936	548.515050353575	1113.861341964817	447.080803911334	569.197132441490	1190.202483225849	764.271360737287	330.184952839667	1119.082877538641	635.370149540569	272.172590845620	1218.117265694890	571.624855845081	331.899478205293	1229.913194587541	502.101801575880	340.441954120569	1211.121926881538	426.864705407104	335.867612346760	1133.226583111487	301.298653383315	293.483432735891	1202.699023648161	198.991418303697	362.980707453736	1033.334422247041	384.138883278253	573.252432223830	910.720864430776	348.218234794878	633.072274339296	893.321928637185	240.392791230806	580.801866468411	688.133490221472	174.988668448957	550.846681827473	859.739757480554	125.662427342131	590.695330403581	749.352269760666	114.307491342220	620.244790359223	928.720563633817	30.846546468477	607.364745009903	1093.296031181676	38.458401622345	416.974748784735	1161.459213748378	36.577518384145	330.867376305958	1244.965548434261	98.525110244543	352.030634685460	1371.631999764244	49.831669401097	315.799290402893	929.543456175480	1100.007985898127	195.297795055269	882.633370679550	846.257228701343	204.447850490652	1202.202339961488	1101.983293086737	732.792083918896	1415.128683066829	1216.394600503320	673.182555707392	
38	27.772285714286	909.678877610217	1002.925365392832	462.111197592807	1060.414652523040	1430.416310041670	281.918916448416	1178.319130631676	1364.528352345567	434.134736165883	1106.359181310676	1435.018305828195	614.869880950974	1053.185304272243	1490.230927030594	439.038911200489	1136.613720898615	934.094645868694	569.872538941857	1118.017326028798	958.040643889144	297.615973005938	1158.276288192048	724.041888217776	552.239040315587	1068.397484745619	621.594193575994	618.516173681478	1144.928716032653	555.405384640892	547.478114470253	1125.316056795753	447.620148297790	568.826168947484	1189.064503445842	763.541537878878	326.038876293161	1115.090209412749	635.254495177067	270.374838395380	1213.848436132264	570.585345645321	329.377414334045	1224.852142407869	501.363443553705	338.813255116326	1205.558848742960	426.221294288110	334.506121140485	1126.562354780486	301.224402791817	292.549061748315	1194.924150479822	198.544022913570	362.469872277153	1042.975138840141	385.330827498627	572.535360448083	918.842764115035	353.935389759326	632.104020772268	898.065097302734	246.540944484467	580.682950861578	691.554485879067	190.842028357047	550.337914406323	860.153463742423	131.848358240115	591.205050238051	748.993155755385	126.434147564292	619.934882303795	923.077057836498	30.316222196052	607.885526448207	1084.321307046420	38.376390157985	416.895728188041	1152.458968069166	36.486249954180	330.784257844825	1236.001725574569	98.426450412270	351.922333729788	1362.662358448701	49.702264428907	315.622487620989	937.882278724793	1098.244050554477	189.977098346283	901.272653929736	842.569988562530	197.743064497136	1190.801251807221	1099.496242950917	731.266803900638	1409.375462536973	1204.206641372027	673.739735338581	
39	27.783428571429	908.979219257405	1003.620324306059	458.964835266733	1061.392020232111	1431.605959662261	279.778428794161	1178.203224937098	1365.622507882019	432.771514156845	1104.893365000300	1435.853669132466	613.093558641057	1053.066645539617	1491.275292354172	436.968434783214	1135.985073206462	935.162028118055	567.516261035672	1118.129878924794	959.178168485900	295.315361919990	1163.286414653904	726.793005655251	550.526358331919	1076.287366547032	622.468492342453	617.118805268123	1154.945769688314	557.624604444851	546.439994243104	1136.759668056932	448.657557941697	568.181175461613	1187.554028517938	762.575758619810	322.208446761754	1110.962592300406	635.105916047147	268.647375428209	1209.322984493169	569.497022342233	327.107004420994	1219.498185371556	500.548929912806	337.266802094121	1199.726116304214	425.537189324655	333.212208102233	1119.706874562603	301.069680147999	291.651813550232	1187.044279276929	198.068940562265	361.978809721860	1052.851551173137	386.849492913825	571.590277583485	927.430329059655	359.680514228647	630.956101491372	903.523669065966	252.797321792462	580.263401931259	696.186378207164	206.020448128659	549.494334801411	861.602076624642	138.388599749010	591.367472953670	749.999370199261	138.498590449547	619.412849733141	918.854824643287	30.437119742179	608.370677881124	1075.307887618011	38.299340570399	416.843071431546	1143.427715312595	36.369735897316	330.737772738092	1227.040207550990	98.277040034254	351.851190940672	1353.692955402934	49.423846868238	315.510217346250	946.594960229826	1096.429722425937	184.602916048890	920.779985616933	839.189238728332	190.927543671803	1178.988843990565	1097.185911676050	729.670052357809	1403.448627813342	1190.490206464869	674.436880582606	
40	27.794571428571	908.123790880040	1004.209081211771	455.954681343758	1062.282329006386	1432.658852934637	277.694851971270	1177.927620203046	1366.636562464372	431.538634675496	1103.170182307023	1436.570762281969	611.430932825102	1052.822881110781	1492.233199932461	434.967389719643	1135.235994406977	936.166969235196	565.378730603906	1118.093174513339	960.185140556524	293.216415656200	1168.147847780861	729.746945497944	548.966634906799	1083.993835212857	623.666750304697	615.762627284370	1164.676114582418	560.258554518956	545.365213366204	1148.097306654972	450.216439392812	567.313152373104	1185.691051516450	761.494328552635	318.799881794259	1106.813194970823	634.995411917503	266.969395546358	1204.601259098650	568.420414412579	325.111784011699	1213.908324080416	499.697233266146	335.814148087187	1193.680307213537	424.848158629200	331.996744092263	1112.723111854043	300.877359229403	290.761354412218	1179.094809762770	197.594443926033	361.497806858516	1062.877788733958	388.708380998986	570.469872336484	936.380104090804	365.358804179632	629.656558926759	909.704217827710	259.006537725727	579.569777026373	701.933751921843	220.051187488155	548.351017677873	864.203824487846	145.035733568310	591.140842516543	752.449424121984	150.070074011567	618.679988031224	916.397469571323	31.361303686249	608.747337907882	1066.281619811827	38.240916144714	416.794012424373	1134.391834584949	36.248036261393	330.705585374281	1218.099334840395	98.099920807799	351.795695218304	1344.739519624158	49.041135003141	315.444481681334	955.752065068988	1094.608548596196	179.215784432470	941.061163251089	836.231531247396	184.057139297798	1166.896868074033	1095.115133052769	728.005112060429	1397.208103008282	1175.288689739503	675.278460701046	
41	27.805714285714	907.143146358891	1004.742401423290	453.098698348657	1063.080276199622	1433.607345273153	275.690956157020	1177.509903501370	1367.587613365726	430.431326786866	1101.253080398998	1437.206151011493	609.880177956718	1052.464017717484	1493.134527488675	433.048491622609	1134.374612013625	937.143331448462	563.430162115978	1117.904860256546	961.101022415784	291.286270551797	1172.765198651078	732.911189392173	547.476046609556	1091.464502779582	625.204826695080	614.437493527041	1174.032612856326	563.320221696182	544.228575175101	1159.261796088246	452.308625698014	566.286761974484	1183.516290939631	760.401598004280	315.868090080918	1102.695190721993	634.966497955121	265.342391793756	1199.721204159533	567.393903784745	323.391282920872	1208.122715778813	498.839830893662	334.471166250220	1187.459819095684	424.183984917642	330.866625892827	1105.639175080134	300.685760886426	289.873198197963	1171.095041452892	197.143969197264	361.020736219890	1072.996664185482	390.911711002078	569.238093465967	945.615953941058	370.865925598976	628.243935383059	916.624684615660	265.006069261973	578.645693984700	708.699374308557	232.523753153169	546.963649270397	868.071026449526	151.522589396229	590.506112853781	756.398127514474	160.738962200301	617.752360388168	916.019443597676	33.140025305949	608.949633090612	1057.260682644774	38.208788839839	416.733341997492	1125.368221124293	36.136585327234	330.671389490461	1209.186131579930	97.915589615543	351.738720037162	1335.807847165380	48.599933727262	315.405920041857	965.421990786957	1092.846103917311	173.854003776800	962.023942000503	833.813328199852	177.186226139391	1154.659490822498	1093.346197933784	726.276628764647	1390.495107463042	1158.669785165272	676.271501234860	
